# xmcd
#
# Track frame offsets:
#	150
#	16663
#	31683
#	41997
#	55032
#	65745
#	88643
#	99854
#	117664
#	133030
#	147527
#	162312
#	174076
#	177787
#	189441
#	199059
#	208086
#	220038
#	233416
#	244049
#	255103
#	264956
#	277247
#	288329
#	303208
#	315606
#	326412
#	339655
#
# Disc length: 4725 seconds
#
# Revision: 1
# Processed by: cddbd v1.5.2PL0 Copyright (c) Steve Scherf et al.
# Submitted via: audiograbber 1.83.01
#
DISCID=8812731c
DTITLE=Bobby Bare - Singin' In The Kitchen
DYEAR=2006
DGENRE=Country
TTITLE0=Singing In The Kitchen
TTITLE1=The Monkey And The Elephant
TTITLE2=Loving You Anyway
TTITLE3=Where'd I Come From
TTITLE4=Ricky Tic Song
TTITLE5=Giving Tree
TTITLE6=You Are
TTITLE7=The Unicorn
TTITLE8=Cloudy Sky
TTITLE9=She Thinks I Can
TTITLE10=Scarlet Ribbons (For Her Hair)
TTITLE11=See That Bluebird
TTITLE12=Singing In The Kitchen (Reprise)
TTITLE13=Less Of Me
TTITLE14=Tall Oak Tree
TTITLE15=When I've Learned Enough To Die
TTITLE16=Family Bible
TTITLE17=Lonesome Valley
TTITLE18=When God Dips His Love In My Heart
TTITLE19=I Saw The Light
TTITLE20=He's Got The Whole World In His Hands
TTITLE21=Just A Closer Walk With Thee
TTITLE22=I'll Fly Away
TTITLE23=Chicago Story
TTITLE24=Barbara Joy
TTITLE25=Maggie
TTITLE26=Poison Red Berries
TTITLE27=Which One Will It Be
EXTD=
EXTT0=
EXTT1=
EXTT2=
EXTT3=
EXTT4=
EXTT5=
EXTT6=
EXTT7=
EXTT8=
EXTT9=
EXTT10=
EXTT11=
EXTT12=
EXTT13=
EXTT14=
EXTT15=
EXTT16=
EXTT17=
EXTT18=
EXTT19=
EXTT20=
EXTT21=
EXTT22=
EXTT23=
EXTT24=
EXTT25=
EXTT26=
EXTT27=
PLAYORDER=
